<svg xmlns="http://www.w3.org/2000/svg" version="1.1" xmlns:xlink="http://www.w3.org/1999/xlink" xmlns:svgjs="http://svgjs.dev/svgjs" width="1440" height="560" preserveAspectRatio="none" viewBox="0 0 1440 560"><g mask="url(&quot;#SvgjsMask1001&quot;)" fill="none"><rect width="1440" height="560" x="0" y="0" fill="rgba(16, 18, 20, 1)"></rect><path d="M0,689.39C125.191,662.004,191.141,530.287,284.115,442.091C358.235,371.78,435.704,310.218,490.568,224.035C552.721,126.403,633.211,25.737,622.529,-89.506C611.754,-205.762,504.788,-283.313,434.876,-376.822C358.863,-478.491,316.731,-628.156,194.416,-662.119C72.002,-696.11,-37.596,-578.955,-159.07,-541.744C-278.654,-505.112,-432.094,-539.901,-513.769,-445.184C-595.453,-350.457,-539.22,-203.896,-557.144,-80.105C-575.092,43.851,-651.826,161.849,-619.173,282.767C-584.705,410.405,-487.579,514.156,-377.069,586.73C-265.935,659.714,-129.885,717.803,0,689.39" fill="#0d0e10"></path><path d="M1440 1139.366C1567.523 1164.473 1718.267 1232.6480000000001 1821.7359999999999 1153.993 1926.8809999999999 1074.063 1872.2640000000001 902.019 1916.112 777.433 1954.508 668.3389999999999 2058.7219999999998 586.128 2062.282 470.529 2066.084 347.08299999999997 2009.575 229.40499999999997 1936.0439999999999 130.175 1858.664 25.750999999999976 1757.421-60.730999999999995 1635.416-105.52599999999995 1508.516-152.11800000000005 1363.378-177.91099999999994 1238.603-125.89499999999998 1117.238-75.30100000000004 1067.136 63.05500000000001 984.904 165.65699999999998 906.375 263.638 780.291 338.35699999999997 766.493 463.164 752.739 587.576 844.599 696.217 914.792 799.854 975.502 889.49 1053.096 961.788 1144.0149999999999 1020.5609999999999 1235.143 1079.469 1333.534 1118.405 1440 1139.366" fill="#131618"></path></g><defs><mask id="SvgjsMask1001"><rect width="1440" height="560" fill="#ffffff"></rect></mask></defs></svg>